<?xml version="1.0" standalone="no"?>
<!DOCTYPE svg PUBLIC "-//W3C//DTD SVG 20010904//EN"
 "http://www.w3.org/TR/2001/REC-SVG-20010904/DTD/svg10.dtd">
<svg version="1.0" xmlns="http://www.w3.org/2000/svg"
 width="416.000000pt" height="416.000000pt" viewBox="0 0 416.000000 416.000000"
 preserveAspectRatio="xMidYMid meet">
<metadata>
Created by potrace 1.11, written by Peter Selinger 2001-2013
</metadata>
<g transform="translate(0.000000,416.000000) scale(0.100000,-0.100000)"
fill="#000000" stroke="none">
<path d="M1885 4119 c-125 -17 -211 -31 -250 -41 -125 -31 -186 -49 -207 -59
-10 -5 -26 -9 -36 -9 -10 0 -22 -4 -28 -8 -5 -5 -25 -15 -44 -22 -86 -32 -254
-120 -350 -183 -286 -188 -480 -392 -657 -687 -46 -77 -123 -235 -123 -253 0
-7 -4 -17 -9 -22 -16 -18 -82 -232 -101 -330 -7 -33 -16 -73 -20 -90 -37 -138
-32 -535 9 -725 6 -25 13 -58 16 -75 8 -39 25 -105 35 -130 4 -11 13 -38 19
-60 7 -22 17 -50 22 -62 5 -13 13 -33 18 -45 41 -103 115 -254 137 -279 8 -8
14 -18 14 -22 0 -17 95 -153 191 -272 178 -220 505 -459 774 -565 33 -12 64
-27 69 -32 6 -4 20 -8 32 -8 13 0 25 -4 28 -9 3 -5 18 -11 33 -14 16 -3 46
-11 68 -17 153 -44 407 -79 570 -80 142 0 402 38 550 80 22 7 52 14 68 17 15
3 30 9 33 14 3 5 15 9 28 9 12 0 26 4 32 8 5 5 36 19 69 32 224 89 465 251
661 445 117 117 177 188 256 305 54 81 169 298 201 380 29 75 39 105 57 170 7
25 16 56 20 70 4 14 13 50 19 80 6 30 15 78 20 105 6 28 15 112 22 189 13 150
1 386 -27 516 -8 36 -17 79 -20 95 -6 36 -24 103 -34 130 -4 11 -13 38 -19 60
-7 22 -17 51 -23 65 -6 14 -14 34 -18 45 -117 307 -341 615 -595 820 -159 128
-363 252 -525 318 -25 10 -54 22 -65 27 -28 11 -73 26 -125 40 -25 7 -56 16
-70 21 -37 12 -223 46 -325 59 -98 12 -304 11 -400 -1z m387 -454 c140 -17
206 -31 327 -72 70 -23 186 -72 225 -94 10 -6 35 -20 54 -31 212 -119 410
-307 552 -524 80 -121 176 -331 184 -399 2 -11 7 -29 13 -40 29 -56 69 -373
60 -477 -20 -236 -26 -265 -84 -453 -42 -137 -187 -415 -216 -415 -6 0 -18 14
-25 30 -15 33 -90 166 -158 277 -24 40 -44 75 -44 79 0 3 -8 18 -19 32 -10 15
-28 43 -39 62 -11 19 -51 89 -89 155 -39 66 -100 172 -136 235 -37 63 -71 122
-76 130 -10 15 -62 105 -122 210 -17 30 -40 67 -50 82 -10 14 -19 29 -19 32 0
4 -20 39 -43 79 -60 100 -147 249 -232 397 -39 69 -90 156 -113 194 -23 37
-42 70 -42 73 0 2 -13 23 -28 46 -16 23 -35 57 -43 75 -8 17 -18 32 -24 32 -8
0 -81 -104 -94 -135 -2 -5 -12 -18 -23 -29 -10 -11 -18 -23 -18 -28 0 -4 -33
-58 -73 -120 -40 -62 -94 -147 -120 -188 -26 -41 -74 -115 -107 -165 -33 -49
-63 -97 -67 -105 -4 -8 -39 -64 -78 -125 -167 -258 -275 -427 -275 -431 0 -3
-22 -38 -50 -79 -27 -41 -50 -79 -50 -85 0 -5 -4 -10 -8 -10 -5 0 -15 -12 -23
-27 -7 -16 -66 -107 -129 -204 -135 -207 -126 -192 -191 -296 -31 -49 -58 -83
-68 -83 -10 0 -31 32 -57 88 -72 150 -80 173 -114 292 -7 25 -16 57 -20 71 -5
15 -16 101 -26 192 -15 144 -16 180 -5 283 13 123 35 257 51 309 88 284 205
486 399 688 107 112 305 259 421 314 195 91 340 135 515 153 61 7 112 14 114
16 10 9 158 3 283 -11z m-173 -1346 c17 -28 31 -52 31 -54 0 -2 23 -40 50 -85
28 -45 50 -83 50 -86 0 -2 17 -32 38 -66 21 -35 51 -88 67 -118 16 -30 35 -63
43 -72 8 -9 11 -22 7 -27 -4 -8 -115 -11 -341 -11 -291 0 -334 2 -334 15 0 8
28 59 63 113 85 131 230 358 242 379 6 10 13 20 16 23 3 3 8 13 12 23 10 27
22 20 56 -34z m142 -967 l427 -2 16 -37 c9 -21 41 -76 70 -123 30 -47 55 -91
55 -97 1 -7 6 -13 11 -13 6 0 10 -9 10 -20 0 -11 4 -20 8 -20 5 0 17 -17 29
-37 11 -21 30 -55 41 -75 12 -21 31 -54 42 -74 11 -19 27 -46 36 -59 15 -23
14 -26 -9 -47 -14 -13 -38 -30 -54 -38 -15 -8 -30 -17 -33 -20 -30 -30 -242
-122 -345 -150 -16 -5 -55 -15 -86 -24 -31 -8 -128 -23 -215 -32 -175 -18
-317 -10 -499 26 -183 37 -383 122 -545 230 -137 92 -136 69 -15 260 58 91
130 206 162 257 66 107 39 98 293 97 96 0 367 -1 601 -2z"/>
</g>
</svg>
