<?xml version="1.0" standalone="no"?>
<!DOCTYPE svg PUBLIC "-//W3C//DTD SVG 20010904//EN"
 "http://www.w3.org/TR/2001/REC-SVG-20010904/DTD/svg10.dtd">
<svg version="1.0" xmlns="http://www.w3.org/2000/svg"
 width="225.000000pt" height="225.000000pt" viewBox="0 0 225.000000 225.000000"
 preserveAspectRatio="xMidYMid meet">
<metadata>
Created by potrace 1.11, written by Peter Selinger 2001-2013
</metadata>
<g transform="translate(0.000000,225.000000) scale(0.100000,-0.100000)"
fill="#000000" stroke="none">
<path d="M695 2000 c-167 -97 -256 -249 -256 -434 0 -255 112 -403 426 -564
44 -22 168 -83 275 -135 212 -102 312 -161 377 -225 45 -44 86 -116 96 -170
10 -48 -10 -125 -44 -171 -16 -23 -26 -41 -21 -41 21 0 135 107 171 161 57 86
82 172 82 289 0 115 -12 176 -52 251 -76 141 -180 220 -507 383 -257 128 -381
199 -448 259 -126 114 -143 257 -43 373 19 21 27 33 18 26 -9 -7 -24 -9 -34
-6 -15 6 -15 9 6 20 13 7 20 13 14 13 -5 0 -32 -13 -60 -29z"/>
<path d="M880 1941 c-5 -11 -10 -27 -10 -36 0 -14 3 -14 31 2 17 10 36 25 42
33 9 12 8 13 -2 4 -14 -13 -54 -7 -45 7 3 5 3 9 0 9 -3 0 -10 -9 -16 -19z"/>
<path d="M1014 1849 c-27 -27 -46 -49 -44 -49 3 0 42 15 87 34 l83 33 -39 15
-39 16 -48 -49z"/>
<path d="M1188 1883 c6 -2 18 -2 25 0 6 3 1 5 -13 5 -14 0 -19 -2 -12 -5z"/>
<path d="M735 659 c-17 -27 69 -112 140 -139 43 -16 116 -29 132 -23 21 8 0
27 -100 89 -99 61 -163 89 -172 73z"/>
<path d="M614 496 c3 -13 8 -35 12 -48 6 -25 5 -25 -71 -30 -42 -3 -81 -10
-87 -16 -19 -19 34 -65 120 -106 218 -102 515 -113 693 -27 66 31 159 104 148
115 -3 4 -37 -1 -75 -11 -49 -12 -109 -17 -209 -16 -123 0 -151 3 -230 27 -49
15 -136 52 -192 82 -56 30 -105 54 -109 54 -3 0 -4 -11 0 -24z"/>
</g>
</svg>
